<mxfile host="app.diagrams.net" agent="Mozilla/5.0 (X11; Linux x86_64) AppleWebKit/537.36 (KHTML, like Gecko) Chrome/131.0.0.0 Safari/537.36" version="26.1.0">
  <diagram name="Страница — 1" id="zrTN1GtJurQKBZDskOBG">
    <mxGraphModel dx="651" dy="375" grid="0" gridSize="10" guides="1" tooltips="1" connect="1" arrows="1" fold="1" page="0" pageScale="1" pageWidth="827" pageHeight="1169" math="0" shadow="0">
      <root>
        <mxCell id="0" />
        <mxCell id="1" parent="0" />
        <mxCell id="aXg-oCFHEHsmBGZGyKgV-1" value="&lt;font color=&quot;#ffffff&quot;&gt;&lt;b&gt;5&lt;/b&gt;&lt;/font&gt;" style="ellipse;whiteSpace=wrap;html=1;aspect=fixed;fillColor=#000000;fontFamily=Helvetica;fontSize=16;" parent="1" vertex="1">
          <mxGeometry x="440" y="320" width="40" height="40" as="geometry" />
        </mxCell>
        <mxCell id="aXg-oCFHEHsmBGZGyKgV-2" value="&lt;font&gt;&lt;b&gt;3&lt;/b&gt;&lt;/font&gt;" style="ellipse;whiteSpace=wrap;html=1;aspect=fixed;fillColor=none;fontFamily=Helvetica;fontSize=16;fontColor=#000000;" parent="1" vertex="1">
          <mxGeometry x="360" y="440" width="40" height="40" as="geometry" />
        </mxCell>
        <mxCell id="aXg-oCFHEHsmBGZGyKgV-3" value="&lt;font&gt;&lt;b&gt;7&lt;/b&gt;&lt;/font&gt;" style="ellipse;whiteSpace=wrap;html=1;aspect=fixed;fillColor=none;fontFamily=Helvetica;fontSize=16;fontColor=#000000;" parent="1" vertex="1">
          <mxGeometry x="520" y="360" width="40" height="40" as="geometry" />
        </mxCell>
        <mxCell id="aXg-oCFHEHsmBGZGyKgV-4" value="&lt;font color=&quot;#ffffff&quot;&gt;&lt;b&gt;1&lt;/b&gt;&lt;/font&gt;" style="ellipse;whiteSpace=wrap;html=1;aspect=fixed;fillColor=#000000;fontFamily=Helvetica;fontSize=16;" parent="1" vertex="1">
          <mxGeometry x="280" y="520" width="40" height="40" as="geometry" />
        </mxCell>
        <mxCell id="aXg-oCFHEHsmBGZGyKgV-5" value="&lt;font color=&quot;#ffffff&quot;&gt;&lt;b&gt;4&lt;/b&gt;&lt;/font&gt;" style="ellipse;whiteSpace=wrap;html=1;aspect=fixed;fillColor=#000000;fontFamily=Helvetica;fontSize=16;" parent="1" vertex="1">
          <mxGeometry x="400" y="480" width="40" height="40" as="geometry" />
        </mxCell>
        <mxCell id="aXg-oCFHEHsmBGZGyKgV-6" value="&lt;font&gt;&lt;b&gt;2&lt;/b&gt;&lt;/font&gt;" style="ellipse;whiteSpace=wrap;html=1;aspect=fixed;fillColor=none;fontFamily=Helvetica;fontSize=16;fontColor=#000000;" parent="1" vertex="1">
          <mxGeometry x="320" y="560" width="40" height="40" as="geometry" />
        </mxCell>
        <mxCell id="aXg-oCFHEHsmBGZGyKgV-7" value="" style="endArrow=blockThin;html=1;rounded=0;endFill=0;strokeWidth=1;exitX=0;exitY=0.5;exitDx=0;exitDy=0;entryX=0.5;entryY=0;entryDx=0;entryDy=0;fontFamily=Helvetica;fontSize=16;" parent="1" source="aXg-oCFHEHsmBGZGyKgV-2" target="aXg-oCFHEHsmBGZGyKgV-4" edge="1">
          <mxGeometry width="50" height="50" relative="1" as="geometry">
            <mxPoint x="252" y="708" as="sourcePoint" />
            <mxPoint x="160" y="750" as="targetPoint" />
            <Array as="points">
              <mxPoint x="300" y="460" />
            </Array>
          </mxGeometry>
        </mxCell>
        <mxCell id="aXg-oCFHEHsmBGZGyKgV-8" value="" style="endArrow=blockThin;html=1;rounded=0;exitX=0;exitY=0.5;exitDx=0;exitDy=0;entryX=0.5;entryY=0;entryDx=0;entryDy=0;endFill=0;strokeWidth=1;fontFamily=Helvetica;fontSize=16;" parent="1" source="aXg-oCFHEHsmBGZGyKgV-1" target="aXg-oCFHEHsmBGZGyKgV-2" edge="1">
          <mxGeometry width="50" height="50" relative="1" as="geometry">
            <mxPoint x="222" y="438" as="sourcePoint" />
            <mxPoint x="118" y="542" as="targetPoint" />
            <Array as="points">
              <mxPoint x="380" y="340" />
            </Array>
          </mxGeometry>
        </mxCell>
        <mxCell id="aXg-oCFHEHsmBGZGyKgV-9" value="" style="endArrow=blockThin;html=1;rounded=0;exitX=1;exitY=0.5;exitDx=0;exitDy=0;entryX=0.5;entryY=0;entryDx=0;entryDy=0;endFill=0;strokeWidth=1;fontFamily=Helvetica;fontSize=16;" parent="1" source="aXg-oCFHEHsmBGZGyKgV-2" target="aXg-oCFHEHsmBGZGyKgV-5" edge="1">
          <mxGeometry width="50" height="50" relative="1" as="geometry">
            <mxPoint x="262" y="678" as="sourcePoint" />
            <mxPoint x="158" y="782" as="targetPoint" />
            <Array as="points">
              <mxPoint x="420" y="460" />
            </Array>
          </mxGeometry>
        </mxCell>
        <mxCell id="aXg-oCFHEHsmBGZGyKgV-10" value="" style="endArrow=blockThin;html=1;rounded=0;entryX=0.5;entryY=0;entryDx=0;entryDy=0;endFill=0;strokeWidth=1;exitX=1;exitY=0.5;exitDx=0;exitDy=0;fontFamily=Helvetica;fontSize=16;" parent="1" source="aXg-oCFHEHsmBGZGyKgV-4" target="aXg-oCFHEHsmBGZGyKgV-6" edge="1">
          <mxGeometry width="50" height="50" relative="1" as="geometry">
            <mxPoint x="262" y="678" as="sourcePoint" />
            <mxPoint x="198" y="742" as="targetPoint" />
            <Array as="points">
              <mxPoint x="340" y="540" />
            </Array>
          </mxGeometry>
        </mxCell>
        <mxCell id="aXg-oCFHEHsmBGZGyKgV-11" value="&lt;font color=&quot;#ffffff&quot;&gt;&lt;b&gt;6&lt;/b&gt;&lt;/font&gt;" style="ellipse;whiteSpace=wrap;html=1;aspect=fixed;fillColor=#000000;fontFamily=Helvetica;fontSize=16;" parent="1" vertex="1">
          <mxGeometry x="480" y="400" width="40" height="40" as="geometry" />
        </mxCell>
        <mxCell id="aXg-oCFHEHsmBGZGyKgV-12" value="" style="endArrow=blockThin;html=1;rounded=0;exitX=1;exitY=0.5;exitDx=0;exitDy=0;entryX=0.5;entryY=0;entryDx=0;entryDy=0;endFill=0;strokeWidth=1;fontFamily=Helvetica;fontSize=16;startSize=6;targetPerimeterSpacing=0;endSize=6;" parent="1" source="aXg-oCFHEHsmBGZGyKgV-1" target="aXg-oCFHEHsmBGZGyKgV-3" edge="1">
          <mxGeometry width="50" height="50" relative="1" as="geometry">
            <mxPoint x="382" y="278" as="sourcePoint" />
            <mxPoint x="278" y="382" as="targetPoint" />
            <Array as="points">
              <mxPoint x="540" y="340" />
            </Array>
          </mxGeometry>
        </mxCell>
        <mxCell id="aXg-oCFHEHsmBGZGyKgV-13" value="" style="endArrow=blockThin;html=1;rounded=0;exitX=0;exitY=0.5;exitDx=0;exitDy=0;entryX=0.5;entryY=0;entryDx=0;entryDy=0;endFill=0;strokeWidth=1;fontFamily=Helvetica;fontSize=16;" parent="1" source="aXg-oCFHEHsmBGZGyKgV-3" target="aXg-oCFHEHsmBGZGyKgV-11" edge="1">
          <mxGeometry width="50" height="50" relative="1" as="geometry">
            <mxPoint x="512" y="368" as="sourcePoint" />
            <mxPoint x="408" y="472" as="targetPoint" />
            <Array as="points">
              <mxPoint x="500" y="380" />
            </Array>
          </mxGeometry>
        </mxCell>
        <mxCell id="aXg-oCFHEHsmBGZGyKgV-14" value="&lt;font color=&quot;#ffffff&quot;&gt;&lt;b&gt;8&lt;/b&gt;&lt;/font&gt;" style="ellipse;whiteSpace=wrap;html=1;aspect=fixed;fillColor=#000000;fontFamily=Helvetica;fontSize=16;" parent="1" vertex="1">
          <mxGeometry x="560" y="480" width="40" height="40" as="geometry" />
        </mxCell>
        <mxCell id="aXg-oCFHEHsmBGZGyKgV-15" value="" style="endArrow=blockThin;html=1;rounded=0;exitX=1;exitY=0.5;exitDx=0;exitDy=0;entryX=0.5;entryY=0;entryDx=0;entryDy=0;endFill=0;strokeWidth=1;fontFamily=Helvetica;fontSize=16;" parent="1" source="aXg-oCFHEHsmBGZGyKgV-3" target="aXg-oCFHEHsmBGZGyKgV-14" edge="1">
          <mxGeometry width="50" height="50" relative="1" as="geometry">
            <mxPoint x="662" y="558" as="sourcePoint" />
            <mxPoint x="598" y="622" as="targetPoint" />
            <Array as="points">
              <mxPoint x="580" y="380" />
            </Array>
          </mxGeometry>
        </mxCell>
        <mxCell id="aXg-oCFHEHsmBGZGyKgV-16" value="&lt;font&gt;&lt;b&gt;9&lt;/b&gt;&lt;/font&gt;" style="ellipse;whiteSpace=wrap;html=1;aspect=fixed;fillColor=none;fontFamily=Helvetica;fontSize=16;fontColor=#000000;" parent="1" vertex="1">
          <mxGeometry x="600" y="520" width="40" height="40" as="geometry" />
        </mxCell>
        <mxCell id="aXg-oCFHEHsmBGZGyKgV-18" value="" style="endArrow=blockThin;html=1;rounded=0;exitX=0;exitY=0.5;exitDx=0;exitDy=0;endFill=0;strokeWidth=1;fontFamily=Helvetica;fontSize=16;" parent="1" source="aXg-oCFHEHsmBGZGyKgV-14" edge="1">
          <mxGeometry width="50" height="50" relative="1" as="geometry">
            <mxPoint x="542" y="558" as="sourcePoint" />
            <mxPoint x="540" y="520" as="targetPoint" />
            <Array as="points">
              <mxPoint x="540" y="500" />
            </Array>
          </mxGeometry>
        </mxCell>
        <mxCell id="aXg-oCFHEHsmBGZGyKgV-20" value="" style="endArrow=blockThin;html=1;rounded=0;exitX=1;exitY=0.5;exitDx=0;exitDy=0;endFill=0;strokeWidth=1;fontFamily=Helvetica;fontSize=16;" parent="1" source="aXg-oCFHEHsmBGZGyKgV-14" edge="1">
          <mxGeometry width="50" height="50" relative="1" as="geometry">
            <mxPoint x="552" y="568" as="sourcePoint" />
            <mxPoint x="620" y="520" as="targetPoint" />
            <Array as="points">
              <mxPoint x="620" y="500" />
            </Array>
          </mxGeometry>
        </mxCell>
        <mxCell id="aXg-oCFHEHsmBGZGyKgV-24" value="" style="endArrow=blockThin;html=1;rounded=0;endFill=0;strokeWidth=1;exitX=0;exitY=0.5;exitDx=0;exitDy=0;fontFamily=Helvetica;fontSize=16;" parent="1" source="aXg-oCFHEHsmBGZGyKgV-6" edge="1">
          <mxGeometry width="50" height="50" relative="1" as="geometry">
            <mxPoint x="198" y="798" as="sourcePoint" />
            <mxPoint x="300" y="600" as="targetPoint" />
            <Array as="points">
              <mxPoint x="300" y="580" />
            </Array>
          </mxGeometry>
        </mxCell>
        <mxCell id="aXg-oCFHEHsmBGZGyKgV-25" value="" style="endArrow=blockThin;html=1;rounded=0;endFill=0;strokeWidth=1;exitX=1;exitY=0.5;exitDx=0;exitDy=0;fontFamily=Helvetica;fontSize=16;" parent="1" source="aXg-oCFHEHsmBGZGyKgV-6" edge="1">
          <mxGeometry width="50" height="50" relative="1" as="geometry">
            <mxPoint x="222" y="878" as="sourcePoint" />
            <mxPoint x="380" y="600" as="targetPoint" />
            <Array as="points">
              <mxPoint x="380" y="580" />
            </Array>
          </mxGeometry>
        </mxCell>
        <mxCell id="aXg-oCFHEHsmBGZGyKgV-28" value="" style="endArrow=blockThin;html=1;rounded=0;endFill=0;strokeWidth=1;exitX=0;exitY=0.5;exitDx=0;exitDy=0;fontFamily=Helvetica;fontSize=16;" parent="1" source="aXg-oCFHEHsmBGZGyKgV-4" edge="1">
          <mxGeometry width="50" height="50" relative="1" as="geometry">
            <mxPoint x="222" y="878" as="sourcePoint" />
            <mxPoint x="260" y="560" as="targetPoint" />
            <Array as="points">
              <mxPoint x="260" y="540" />
            </Array>
          </mxGeometry>
        </mxCell>
        <mxCell id="aXg-oCFHEHsmBGZGyKgV-29" value="" style="endArrow=blockThin;html=1;rounded=0;endFill=0;strokeWidth=1;exitX=0;exitY=0.5;exitDx=0;exitDy=0;fontFamily=Helvetica;fontSize=16;" parent="1" source="aXg-oCFHEHsmBGZGyKgV-5" edge="1">
          <mxGeometry width="50" height="50" relative="1" as="geometry">
            <mxPoint x="222" y="878" as="sourcePoint" />
            <mxPoint x="380" y="520" as="targetPoint" />
            <Array as="points">
              <mxPoint x="380" y="500" />
            </Array>
          </mxGeometry>
        </mxCell>
        <mxCell id="aXg-oCFHEHsmBGZGyKgV-31" value="" style="endArrow=blockThin;html=1;rounded=0;endFill=0;strokeWidth=1;exitX=1;exitY=0.5;exitDx=0;exitDy=0;fontFamily=Helvetica;fontSize=16;" parent="1" source="aXg-oCFHEHsmBGZGyKgV-11" edge="1">
          <mxGeometry width="50" height="50" relative="1" as="geometry">
            <mxPoint x="198" y="638" as="sourcePoint" />
            <mxPoint x="540" y="440" as="targetPoint" />
            <Array as="points">
              <mxPoint x="540" y="420" />
            </Array>
          </mxGeometry>
        </mxCell>
        <mxCell id="aXg-oCFHEHsmBGZGyKgV-32" value="" style="endArrow=blockThin;html=1;rounded=0;entryX=0.5;entryY=0;entryDx=0;entryDy=0;endFill=0;strokeWidth=1;exitX=0;exitY=0.5;exitDx=0;exitDy=0;fontFamily=Helvetica;fontSize=16;" parent="1" source="aXg-oCFHEHsmBGZGyKgV-11" edge="1">
          <mxGeometry width="50" height="50" relative="1" as="geometry">
            <mxPoint x="208" y="648" as="sourcePoint" />
            <mxPoint x="460" y="440" as="targetPoint" />
            <Array as="points">
              <mxPoint x="460" y="420" />
            </Array>
          </mxGeometry>
        </mxCell>
        <mxCell id="aXg-oCFHEHsmBGZGyKgV-34" value="" style="endArrow=blockThin;html=1;rounded=0;endFill=0;strokeWidth=1;exitX=1;exitY=0.5;exitDx=0;exitDy=0;fontFamily=Helvetica;fontSize=16;" parent="1" source="aXg-oCFHEHsmBGZGyKgV-5" edge="1">
          <mxGeometry width="50" height="50" relative="1" as="geometry">
            <mxPoint x="382" y="718" as="sourcePoint" />
            <mxPoint x="460" y="520" as="targetPoint" />
            <Array as="points">
              <mxPoint x="460" y="500" />
            </Array>
          </mxGeometry>
        </mxCell>
        <mxCell id="aXg-oCFHEHsmBGZGyKgV-39" value="" style="endArrow=blockThin;html=1;rounded=0;exitX=0;exitY=0.5;exitDx=0;exitDy=0;endFill=0;strokeWidth=1;fontFamily=Helvetica;fontSize=16;" parent="1" source="aXg-oCFHEHsmBGZGyKgV-16" edge="1">
          <mxGeometry width="50" height="50" relative="1" as="geometry">
            <mxPoint x="740" y="700" as="sourcePoint" />
            <mxPoint x="580" y="560" as="targetPoint" />
            <Array as="points">
              <mxPoint x="580" y="540" />
            </Array>
          </mxGeometry>
        </mxCell>
        <mxCell id="aXg-oCFHEHsmBGZGyKgV-40" value="" style="endArrow=blockThin;html=1;rounded=0;exitX=1;exitY=0.5;exitDx=0;exitDy=0;endFill=0;strokeWidth=1;fontFamily=Helvetica;fontSize=16;" parent="1" source="aXg-oCFHEHsmBGZGyKgV-16" edge="1">
          <mxGeometry width="50" height="50" relative="1" as="geometry">
            <mxPoint x="860" y="670" as="sourcePoint" />
            <mxPoint x="660" y="560" as="targetPoint" />
            <Array as="points">
              <mxPoint x="660" y="540" />
            </Array>
          </mxGeometry>
        </mxCell>
        <mxCell id="25aGN90RxRER4dsu9cj5-1" value="&lt;b&gt;&lt;font style=&quot;font-size: 10px; color: rgb(255, 255, 255);&quot;&gt;NULL&lt;/font&gt;&lt;/b&gt;" style="rounded=0;whiteSpace=wrap;html=1;fillColor=#000000;" parent="1" vertex="1">
          <mxGeometry x="440" y="440" width="40" height="20" as="geometry" />
        </mxCell>
        <mxCell id="25aGN90RxRER4dsu9cj5-2" value="&lt;b&gt;&lt;font style=&quot;font-size: 10px; color: rgb(255, 255, 255);&quot;&gt;NULL&lt;/font&gt;&lt;/b&gt;" style="rounded=0;whiteSpace=wrap;html=1;fillColor=#000000;" parent="1" vertex="1">
          <mxGeometry x="520" y="440" width="40" height="20" as="geometry" />
        </mxCell>
        <mxCell id="25aGN90RxRER4dsu9cj5-3" value="&lt;b&gt;&lt;font style=&quot;font-size: 10px; color: rgb(255, 255, 255);&quot;&gt;NULL&lt;/font&gt;&lt;/b&gt;" style="rounded=0;whiteSpace=wrap;html=1;fillColor=#000000;" parent="1" vertex="1">
          <mxGeometry x="360" y="520" width="40" height="20" as="geometry" />
        </mxCell>
        <mxCell id="25aGN90RxRER4dsu9cj5-4" value="&lt;b&gt;&lt;font style=&quot;font-size: 10px; color: rgb(255, 255, 255);&quot;&gt;NULL&lt;/font&gt;&lt;/b&gt;" style="rounded=0;whiteSpace=wrap;html=1;fillColor=#000000;" parent="1" vertex="1">
          <mxGeometry x="440" y="520" width="40" height="20" as="geometry" />
        </mxCell>
        <mxCell id="25aGN90RxRER4dsu9cj5-5" value="&lt;b&gt;&lt;font style=&quot;font-size: 10px; color: rgb(255, 255, 255);&quot;&gt;NULL&lt;/font&gt;&lt;/b&gt;" style="rounded=0;whiteSpace=wrap;html=1;fillColor=#000000;" parent="1" vertex="1">
          <mxGeometry x="240" y="560" width="40" height="20" as="geometry" />
        </mxCell>
        <mxCell id="25aGN90RxRER4dsu9cj5-6" value="&lt;b&gt;&lt;font style=&quot;font-size: 10px; color: rgb(255, 255, 255);&quot;&gt;NULL&lt;/font&gt;&lt;/b&gt;" style="rounded=0;whiteSpace=wrap;html=1;fillColor=#000000;" parent="1" vertex="1">
          <mxGeometry x="280" y="600" width="40" height="20" as="geometry" />
        </mxCell>
        <mxCell id="25aGN90RxRER4dsu9cj5-7" value="&lt;b&gt;&lt;font style=&quot;font-size: 10px; color: rgb(255, 255, 255);&quot;&gt;NULL&lt;/font&gt;&lt;/b&gt;" style="rounded=0;whiteSpace=wrap;html=1;fillColor=#000000;" parent="1" vertex="1">
          <mxGeometry x="360" y="600" width="40" height="20" as="geometry" />
        </mxCell>
        <mxCell id="25aGN90RxRER4dsu9cj5-8" value="&lt;b&gt;&lt;font style=&quot;font-size: 10px; color: rgb(255, 255, 255);&quot;&gt;NULL&lt;/font&gt;&lt;/b&gt;" style="rounded=0;whiteSpace=wrap;html=1;fillColor=#000000;" parent="1" vertex="1">
          <mxGeometry x="520" y="520" width="40" height="20" as="geometry" />
        </mxCell>
        <mxCell id="25aGN90RxRER4dsu9cj5-9" value="&lt;b&gt;&lt;font style=&quot;font-size: 10px; color: rgb(255, 255, 255);&quot;&gt;NULL&lt;/font&gt;&lt;/b&gt;" style="rounded=0;whiteSpace=wrap;html=1;fillColor=#000000;" parent="1" vertex="1">
          <mxGeometry x="640" y="560" width="40" height="20" as="geometry" />
        </mxCell>
        <mxCell id="25aGN90RxRER4dsu9cj5-10" value="&lt;b&gt;&lt;font style=&quot;font-size: 10px; color: rgb(255, 255, 255);&quot;&gt;NULL&lt;/font&gt;&lt;/b&gt;" style="rounded=0;whiteSpace=wrap;html=1;fillColor=#000000;" parent="1" vertex="1">
          <mxGeometry x="560" y="560" width="40" height="20" as="geometry" />
        </mxCell>
      </root>
    </mxGraphModel>
  </diagram>
</mxfile>
